<?xml version="1.0" standalone="no"?>
<!DOCTYPE svg PUBLIC "-//W3C//DTD SVG 20010904//EN"
 "http://www.w3.org/TR/2001/REC-SVG-20010904/DTD/svg10.dtd">
<svg version="1.0" xmlns="http://www.w3.org/2000/svg"
 width="768.000000pt" height="768.000000pt" viewBox="0 0 768.000000 768.000000"
 preserveAspectRatio="xMidYMid meet">
<metadata>
Created by potrace 1.16, written by Peter Selinger 2001-2019
</metadata>
<g transform="translate(0.000000,768.000000) scale(0.100000,-0.100000)"
fill="#000000" stroke="none">
<path d="M3620 6140 c-444 -43 -889 -225 -1235 -505 -119 -96 -302 -286 -391
-405 -633 -847 -613 -2017 49 -2835 90 -111 294 -307 407 -391 174 -130 351
-228 552 -308 126 -49 159 -54 214 -31 58 24 64 53 64 296 l0 211 -37 -7
c-361 -68 -623 41 -748 310 -78 168 -151 264 -255 335 -30 21 -66 50 -80 65
l-25 27 25 20 c37 30 135 22 220 -18 87 -42 145 -95 219 -203 70 -103 130
-160 210 -198 47 -22 73 -28 157 -31 107 -4 167 4 255 37 l54 21 12 61 c15 79
52 154 103 206 22 23 40 44 40 46 0 3 -24 7 -52 11 -579 76 -897 359 -972 868
-21 137 -21 346 0 445 28 135 93 275 177 381 l33 43 -18 56 c-49 144 -39 366
24 525 14 37 37 42 129 28 103 -16 260 -81 397 -163 l109 -65 84 19 c322 72
692 72 997 -1 l84 -20 81 49 c168 100 311 161 432 182 107 18 115 13 149 -111
39 -141 39 -323 -1 -442 l-19 -55 48 -58 c64 -79 111 -171 144 -280 22 -76 27
-115 32 -248 14 -478 -136 -805 -455 -991 -122 -72 -346 -140 -525 -161 -32
-4 -58 -9 -58 -11 0 -2 16 -25 37 -51 20 -27 47 -73 61 -103 47 -106 52 -158
52 -552 0 -413 3 -433 65 -462 47 -22 64 -21 173 20 201 74 441 207 616 342
89 69 268 244 354 347 278 332 461 770 513 1224 15 137 7 504 -15 631 -57 328
-174 625 -352 891 -96 145 -177 240 -315 374 -347 335 -778 547 -1259 620
-128 19 -431 27 -560 15z"/>
</g>
</svg>
