<?xml version="1.0" standalone="no"?>
<!DOCTYPE svg PUBLIC "-//W3C//DTD SVG 20010904//EN"
 "http://www.w3.org/TR/2001/REC-SVG-20010904/DTD/svg10.dtd">
<svg version="1.0" xmlns="http://www.w3.org/2000/svg"
 width="1200.000000pt" height="1120.000000pt" viewBox="0 0 1200.000000 1120.000000"
 preserveAspectRatio="xMidYMid meet">
<metadata>
Created by potrace 1.16, written by Peter Selinger 2001-2019
</metadata>
<g transform="translate(0.000000,1120.000000) scale(0.100000,-0.100000)"
fill="#000000" stroke="none">
<path d="M5745 10948 c-82 -3 -199 -14 -259 -23 -548 -82 -1112 -356 -1506
-729 -321 -305 -552 -638 -716 -1033 -142 -341 -224 -752 -224 -1119 0 -715
237 -1388 687 -1951 163 -204 371 -400 643 -605 312 -234 488 -416 674 -696
236 -355 383 -756 427 -1169 17 -164 7 -536 -19 -678 -103 -562 -333 -1001
-720 -1377 -359 -349 -800 -567 -1302 -645 -161 -25 -502 -25 -655 0 -389 64
-722 202 -1016 424 -516 389 -824 973 -846 1608 -12 334 54 646 198 941 409
840 1350 1255 2209 973 537 -176 945 -608 1081 -1145 167 -664 -135 -1354
-724 -1650 -289 -146 -642 -175 -951 -77 -170 53 -346 162 -472 289 -339 342
-407 873 -162 1251 160 245 404 384 678 386 200 1 342 -55 476 -188 121 -119
174 -239 174 -391 0 -218 -150 -394 -337 -394 -97 0 -177 60 -171 129 3 32 6
35 55 49 64 18 108 61 125 125 31 118 -61 249 -206 292 -219 65 -467 -98 -540
-356 -24 -86 -29 -159 -16 -245 75 -499 649 -769 1146 -540 243 113 440 336
527 596 44 133 52 187 51 355 0 133 -4 176 -23 255 -56 232 -174 435 -350 603
-393 375 -1005 463 -1517 217 -160 -77 -275 -160 -410 -294 -222 -222 -356
-472 -424 -793 -31 -142 -38 -401 -16 -551 73 -496 373 -953 801 -1219 194
-121 390 -199 632 -250 116 -24 148 -27 348 -27 172 -1 242 3 320 18 409 75
755 251 1043 530 175 170 283 313 396 527 108 204 184 441 221 684 20 131 23
426 6 560 -42 326 -169 670 -349 945 -454 694 -1267 1096 -2103 1040 -248 -16
-392 -44 -629 -122 -516 -168 -988 -528 -1295 -988 -222 -334 -356 -685 -422
-1110 -24 -159 -24 -545 1 -715 117 -805 561 -1501 1241 -1948 131 -86 410
-228 545 -278 763 -280 1580 -245 2308 101 559 267 1034 708 1340 1247 72 126
173 338 216 456 76 205 149 504 176 722 45 360 75 511 145 719 93 279 252 569
441 806 103 129 315 335 445 432 344 258 703 415 1120 488 157 28 503 39 660
21 727 -84 1344 -455 1736 -1044 189 -284 315 -625 359 -969 22 -177 15 -483
-15 -643 -59 -310 -166 -581 -327 -821 -500 -748 -1401 -1081 -2241 -828 -207
62 -461 197 -628 334 -299 246 -506 568 -600 935 -44 173 -59 314 -51 495 10
247 60 441 171 665 217 437 617 739 1100 831 121 23 357 23 485 0 274 -49 524
-179 715 -371 243 -243 366 -530 368 -855 1 -148 -12 -245 -50 -360 -71 -218
-198 -398 -374 -529 -288 -217 -659 -256 -964 -104 -96 48 -151 90 -235 180
-237 253 -253 643 -37 879 99 108 221 159 366 152 74 -3 95 -9 150 -38 107
-57 166 -166 141 -258 -10 -39 -49 -82 -74 -82 -6 0 -28 18 -50 40 -42 43 -82
56 -147 47 -156 -21 -230 -235 -139 -405 124 -234 443 -300 706 -147 27 16 83
62 125 104 135 136 200 300 200 506 0 135 -23 232 -84 360 -227 470 -826 650
-1332 401 -130 -64 -191 -108 -302 -217 -230 -226 -353 -530 -353 -869 0 -219
48 -419 146 -608 75 -146 149 -244 274 -366 208 -203 456 -332 755 -393 137
-27 454 -25 588 5 340 75 588 211 832 456 202 202 329 405 415 663 73 220 84
296 85 568 0 215 -2 252 -23 350 -129 604 -506 1087 -1057 1355 -198 96 -390
155 -604 184 -143 20 -415 21 -565 1 -505 -66 -994 -334 -1336 -732 -287 -332
-464 -728 -531 -1188 -17 -115 -18 -472 -1 -590 64 -445 217 -812 495 -1180
84 -111 322 -345 442 -436 932 -699 2189 -688 3140 26 266 199 517 480 687
767 176 298 282 575 347 911 38 196 51 331 51 536 -1 636 -202 1229 -598 1761
-102 137 -373 412 -519 528 -415 328 -887 530 -1455 624 -117 20 -170 22 -438
22 -266 0 -323 -3 -450 -23 -295 -45 -545 -119 -870 -256 -437 -184 -718 -245
-1129 -245 -564 0 -1114 184 -1561 523 -205 156 -426 394 -573 617 -80 123
-212 387 -257 515 -45 127 -96 331 -117 465 -28 178 -25 551 6 723 89 503 303
920 650 1266 368 368 857 591 1381 631 420 32 874 -78 1235 -300 456 -279 788
-749 895 -1267 181 -879 -301 -1762 -1117 -2046 -901 -314 -1860 215 -2018
1113 -20 112 -19 342 0 456 83 473 432 861 880 980 89 24 119 27 270 28 156 1
178 -1 268 -26 183 -51 308 -122 440 -247 204 -194 306 -462 277 -722 -21
-183 -92 -334 -215 -454 -113 -111 -220 -165 -375 -187 -208 -31 -429 81 -513
259 -27 59 -32 78 -31 148 0 84 20 141 68 193 50 55 140 72 179 34 18 -18 19
-25 9 -47 -16 -35 -15 -110 2 -143 34 -65 104 -102 191 -102 174 0 315 167
315 372 -1 147 -47 255 -155 364 -229 230 -611 245 -893 34 -183 -135 -296
-323 -337 -557 -85 -486 227 -973 730 -1141 129 -43 221 -56 380 -57 337 0
638 128 890 380 277 276 419 649 402 1055 -25 560 -357 1062 -874 1319 -789
393 -1759 114 -2260 -650 -206 -315 -313 -679 -313 -1066 0 -917 625 -1727
1534 -1989 204 -59 318 -76 552 -81 163 -4 241 -2 345 12 392 49 767 202 1098
447 116 86 316 280 416 403 382 471 581 1106 535 1710 -39 509 -210 967 -514
1372 -101 136 -309 349 -446 460 -340 274 -743 461 -1180 547 -224 44 -406 56
-675 44z m480 -144 c536 -65 1059 -313 1450 -686 405 -386 661 -886 741 -1443
23 -163 23 -489 0 -640 -41 -264 -108 -482 -220 -710 -339 -689 -986 -1150
-1735 -1236 -156 -17 -467 -7 -606 21 -225 44 -388 100 -573 194 -819 420
-1239 1330 -1011 2194 52 197 128 364 250 548 102 154 303 353 459 457 563
373 1246 380 1790 19 120 -80 312 -272 390 -392 82 -126 124 -210 165 -333 49
-148 66 -245 72 -397 23 -645 -418 -1192 -1032 -1280 -255 -36 -542 37 -750
190 -277 205 -421 548 -361 863 63 329 311 565 615 584 205 13 394 -88 476
-253 37 -77 46 -191 20 -260 -20 -53 -66 -109 -106 -130 -35 -18 -99 -18 -124
0 -17 13 -18 18 -5 69 16 67 9 109 -26 155 -37 48 -95 72 -174 72 -80 0 -132
-22 -198 -84 -92 -86 -135 -222 -113 -358 34 -215 218 -402 451 -459 76 -19
250 -16 329 5 241 65 452 252 547 487 62 152 84 362 55 519 -73 398 -371 717
-776 834 -508 147 -1078 -72 -1385 -530 -110 -165 -168 -301 -216 -509 -27
-114 -27 -452 -1 -575 104 -480 401 -868 835 -1088 134 -68 222 -102 360 -136
161 -41 246 -49 460 -44 169 4 214 9 316 32 217 50 395 123 578 237 559 347
906 1019 874 1694 -18 381 -131 727 -342 1046 -361 548 -982 903 -1657 949
-820 55 -1613 -343 -2078 -1044 -87 -131 -211 -373 -260 -506 -42 -116 -104
-361 -126 -500 -25 -160 -25 -545 1 -710 93 -602 371 -1124 820 -1538 197
-182 367 -297 631 -428 247 -122 500 -201 807 -251 150 -25 617 -25 778 0 262
41 482 106 780 232 508 214 860 285 1354 272 481 -12 918 -130 1331 -358 253
-141 438 -281 655 -499 449 -449 729 -1036 797 -1669 18 -177 13 -512 -12
-671 -44 -282 -126 -544 -250 -795 -139 -282 -290 -492 -509 -710 -387 -383
-894 -635 -1433 -711 -780 -109 -1599 184 -2109 754 -316 354 -499 743 -575
1227 -8 46 -13 171 -13 290 -1 224 12 337 59 526 209 832 871 1442 1696 1563
139 21 408 21 548 1 420 -62 794 -252 1081 -551 240 -250 383 -521 462 -874
21 -94 23 -130 23 -335 -1 -199 -4 -243 -23 -328 -141 -635 -587 -1093 -1193
-1229 -138 -31 -426 -33 -558 -5 -427 92 -756 339 -936 702 -97 197 -131 360
-122 589 7 168 34 282 102 423 110 230 264 388 480 494 125 61 230 88 365 96
256 14 468 -66 646 -242 77 -76 98 -104 137 -185 26 -52 54 -122 62 -155 21
-80 20 -237 0 -317 -65 -251 -286 -426 -513 -405 -116 11 -207 67 -256 157
-24 44 -28 60 -24 111 3 44 10 65 28 84 32 34 57 31 97 -10 141 -145 368 33
324 254 -40 201 -216 331 -445 331 -274 0 -506 -186 -598 -480 -30 -98 -32
-307 -4 -410 132 -484 646 -767 1170 -646 397 93 732 431 841 852 77 296 43
621 -94 899 -78 158 -160 272 -286 394 -250 243 -562 383 -920 411 -570 46
-1138 -235 -1466 -725 -128 -191 -215 -402 -266 -644 -25 -115 -27 -146 -27
-346 0 -201 2 -231 27 -348 126 -595 496 -1073 1042 -1345 181 -91 351 -145
585 -188 132 -25 493 -25 635 -1 459 79 861 284 1180 602 191 192 307 351 429
595 156 313 236 654 236 1011 0 275 -35 492 -120 752 -166 503 -512 954 -960
1252 -352 234 -735 372 -1159 416 -162 17 -511 6 -667 -20 -579 -98 -1082
-362 -1489 -783 -369 -380 -608 -828 -719 -1348 -25 -116 -34 -174 -61 -400
-59 -488 -222 -933 -486 -1330 -461 -693 -1175 -1147 -1999 -1271 -174 -26
-562 -32 -720 -11 -594 80 -1138 329 -1540 706 -356 335 -596 716 -736 1169
-79 254 -108 460 -108 757 -1 259 14 377 74 616 47 185 93 310 176 479 128
261 276 465 491 676 785 770 1970 895 2873 305 172 -113 393 -316 511 -471
487 -637 580 -1460 244 -2150 -265 -545 -741 -915 -1335 -1036 -99 -20 -144
-24 -325 -24 -179 0 -227 3 -323 23 -686 138 -1179 616 -1327 1283 -9 43 -19
145 -22 244 -4 144 -2 189 15 290 53 307 185 567 396 780 403 405 1002 510
1486 260 286 -148 490 -402 571 -711 20 -76 24 -112 23 -249 0 -144 -3 -169
-27 -250 -77 -257 -235 -453 -452 -560 -128 -63 -196 -79 -340 -79 -207 -1
-345 53 -480 189 -171 170 -218 385 -127 579 87 186 302 264 427 155 63 -56
56 -122 -14 -132 -79 -10 -131 -78 -131 -168 1 -96 53 -173 155 -227 45 -24
61 -27 155 -27 99 0 109 2 173 33 81 40 170 124 215 204 18 31 42 94 54 140
70 279 -69 584 -342 745 -113 67 -271 107 -420 106 -244 -1 -458 -92 -643
-272 -340 -329 -410 -867 -170 -1309 174 -321 472 -542 863 -637 102 -25 382
-31 500 -11 320 56 571 187 801 416 393 393 544 960 405 1515 -53 210 -132
384 -259 569 -74 108 -243 286 -352 371 -658 514 -1572 523 -2280 22 -117 -83
-354 -314 -439 -429 -287 -389 -431 -857 -413 -1343 12 -324 79 -590 222 -880
128 -261 249 -428 456 -631 354 -346 791 -561 1299 -640 159 -25 517 -25 685
0 714 105 1347 513 1747 1126 81 124 212 384 263 524 45 123 99 332 126 490
27 153 37 519 20 693 -32 318 -135 666 -281 951 -209 408 -484 728 -875 1017
-313 232 -539 458 -730 730 -279 398 -451 834 -521 1320 -25 171 -25 593 -1
760 92 623 345 1148 766 1587 148 155 270 256 456 380 539 359 1171 510 1810
432z"/>
</g>
</svg>
